<svg width="124" height="40" fill="none" xmlns="http://www.w3.org/2000/svg"><path d="M114.915 32.34c-1.705 0-3.182-.374-4.432-1.124-1.25-.75-2.22-1.8-2.909-3.148-.682-1.348-1.023-2.924-1.023-4.727 0-1.803.341-3.383 1.023-4.739.689-1.356 1.659-2.409 2.909-3.159 1.25-.75 2.727-1.125 4.432-1.125 1.704 0 3.182.375 4.432 1.125 1.25.75 2.216 1.803 2.897 3.16.69 1.355 1.034 2.935 1.034 4.738 0 1.803-.344 3.379-1.034 4.727-.681 1.349-1.647 2.398-2.897 3.148-1.25.75-2.728 1.125-4.432 1.125Zm.023-3.295c.924 0 1.696-.253 2.318-.76.621-.516 1.083-1.206 1.386-2.07.311-.863.466-1.825.466-2.886 0-1.068-.155-2.034-.466-2.897-.303-.871-.765-1.565-1.386-2.08-.622-.515-1.394-.773-2.318-.773-.947 0-1.735.258-2.364.773-.621.515-1.087 1.209-1.398 2.08-.303.863-.454 1.83-.454 2.898 0 1.06.151 2.022.454 2.886.311.863.777 1.553 1.398 2.068.629.508 1.417.761 2.364.761ZM95.332 32V14.546h3.989v2.909h.182c.318-1.008.863-1.784 1.636-2.33.781-.553 1.671-.83 2.671-.83a9.5 9.5 0 0 1 .761.034c.288.016.527.042.716.08v3.784c-.174-.06-.451-.114-.83-.159a7.633 7.633 0 0 0-1.079-.08c-.75 0-1.424.163-2.023.49a3.573 3.573 0 0 0-1.398 1.329c-.34.568-.511 1.223-.511 1.966V32h-4.114ZM91.892 14.546v3.181H81.858v-3.181h10.034Zm-7.557-4.182h4.114V26.75c0 .553.083.977.25 1.273.174.288.401.485.682.59.28.107.59.16.931.16.258 0 .493-.02.705-.057.22-.038.386-.072.5-.102l.693 3.215c-.22.076-.534.16-.943.25a7.712 7.712 0 0 1-1.477.16c-1.03.03-1.959-.125-2.784-.466a4.33 4.33 0 0 1-1.966-1.614c-.478-.727-.712-1.636-.705-2.727V10.364ZM74.832 32V14.545h4.114V32h-4.114Zm2.069-19.932a2.4 2.4 0 0 1-1.682-.648c-.47-.439-.705-.966-.705-1.58 0-.62.235-1.147.705-1.579.47-.439 1.03-.659 1.682-.659.659 0 1.22.22 1.681.66.47.431.705.958.705 1.579 0 .614-.235 1.14-.705 1.58-.462.431-1.022.647-1.681.647ZM70.42 8.727V32h-3.75L55.706 16.148h-.194V32h-4.216V8.727h3.773l10.955 15.864h.204V8.727h4.194Z" fill="#000"/><g clip-path="url(#a)"><mask id="b" style="mask-type:luminance" maskUnits="userSpaceOnUse" x="0" y="0" width="40" height="41"><path d="M40 0H0v40.001h40V0Z" fill="#fff"/></mask><g mask="url(#b)"><path fill-rule="evenodd" clip-rule="evenodd" d="M35.217 7.02C28.047-1.383 15.424-2.384 7.02 4.785c-8.404 7.169-9.404 19.792-2.236 28.196 7.17 8.403 19.793 9.404 28.196 2.235 8.404-7.169 9.404-19.793 2.236-28.196Zm-9.964 10.497c.77 0 1.262.836.876 1.502l-.112.192L18.47 31.63a.773.773 0 0 1-.661.372h-.72a.755.755 0 0 1-.732-.944l2.048-7.919a1 1 0 0 0-.968-1.25h-3.146a1 1 0 0 1-.968-1.25l3.09-11.955a.923.923 0 0 1 .895-.68c.05 0 .097 0 .135.002h3.168a1 1 0 0 1 .991 1.134l-.02.143-1.207 7.067a1 1 0 0 0 .985 1.168h3.893Z" fill="url(#c)"/><mask id="e" style="mask-type:alpha" maskUnits="userSpaceOnUse" x="0" y="0" width="40" height="41"><path d="M20 40.001c11.046 0 20-8.954 20-20s-8.954-20-20-20-20 8.954-20 20 8.954 20 20 20Z" fill="url(#d)"/></mask><g filter="url(#f)" mask="url(#e)"><path d="M1.111 13.427a20 20 0 1 0 37.957.541l-5.815 1.84a13.901 13.901 0 1 1-26.381-.376l-5.76-2.005Z" fill="#fff"/></g></g></g><defs><radialGradient id="c" cx="0" cy="0" r="1" gradientUnits="userSpaceOnUse" gradientTransform="matrix(39.0007 0 0 397.71 4 20)"><stop stop-color="#31B2F3"/><stop offset=".474" stop-color="#F27CEC"/><stop offset="1" stop-color="#FD6641"/></radialGradient><radialGradient id="d" cx="0" cy="0" r="1" gradientUnits="userSpaceOnUse" gradientTransform="matrix(39 0 0 397.703 4 20.001)"><stop stop-color="#F27CEC"/><stop offset=".484" stop-color="#31B2F3"/><stop offset="1" stop-color="#7D7573"/></radialGradient><clipPath id="a"><path fill="#fff" d="M0 0h40v40H0z"/></clipPath><filter id="f" x="-10" y="3.427" width="60" height="46.574" filterUnits="userSpaceOnUse" color-interpolation-filters="sRGB"><feFlood flood-opacity="0" result="BackgroundImageFix"/><feBlend in="SourceGraphic" in2="BackgroundImageFix" result="shape"/><feGaussianBlur stdDeviation="5" result="effect1_foregroundBlur_2017_45"/></filter></defs></svg>
